<?xml version="1.0" encoding="UTF-8"?><svg id="Layer_1" xmlns="http://www.w3.org/2000/svg" viewBox="0 0 72 72"><defs><style>.cls-1{fill:#fff;}</style></defs><path class="cls-1" d="m66.69,0H5.32C2.38,0,0,2.38,0,5.32v61.37c0,2.94,2.38,5.32,5.32,5.32h61.37c2.94,0,5.32-2.38,5.32-5.32V5.32c0-2.94-2.38-5.32-5.32-5.32ZM21.46,61.34h-10.82V26.95h10.82v34.39Zm-5.41-39.15c-3.45,0-6.24-2.62-6.24-6.21s2.79-6.22,6.24-6.22,6.24,2.63,6.24,6.22-2.79,6.21-6.24,6.21Zm45.32,39.18h-10.82v-18.78c0-5.54-2.36-7.25-5.39-7.25-3.21,0-6.36,2.42-6.36,7.39v18.64h-10.82V26.98h10.41v4.76h.14c1.05-2.12,4.7-5.73,10.29-5.73,6.04,0,12.57,3.58,12.57,14.09v21.27Z"/></svg>