<?xml version="1.0" encoding="UTF-8"?>
<svg id="Layer_1" data-name="Layer 1" xmlns="http://www.w3.org/2000/svg" viewBox="0 0 582.73 1248">
  <defs>
    <style>
      .cls-1 {
        fill: #1a323d;
      }
    </style>
  </defs>
  <g>
    <path class="cls-1" d="M87.62,101.92h-30.62c-4.42,0-7.58-.99-9.47-2.97-1.89-1.98-2.84-5.14-2.84-9.47V14.15c0-4.42,.97-7.6,2.91-9.54s5.07-2.91,9.4-2.91h32.47c4.79,0,8.93,.3,12.44,.89,3.51,.59,6.65,1.73,9.43,3.42,2.37,1.41,4.47,3.2,6.29,5.37,1.82,2.17,3.21,4.56,4.17,7.18,.96,2.62,1.44,5.39,1.44,8.31,0,10.03-5.01,17.36-15.04,22.01,13.17,4.19,19.76,12.35,19.76,24.47,0,5.61-1.44,10.65-4.31,15.14-2.87,4.49-6.75,7.8-11.62,9.95-3.05,1.28-6.56,2.18-10.53,2.7-3.96,.52-8.59,.79-13.88,.79ZM64.99,16.95v25.91h18.59c5.06,0,8.97-.48,11.72-1.44,2.76-.96,4.86-2.78,6.32-5.47,1.14-1.91,1.71-4.06,1.71-6.43,0-5.06-1.8-8.42-5.4-10.08-3.6-1.66-9.09-2.5-16.47-2.5h-16.47Zm21.12,40.47h-21.12v29.26h21.81c13.72,0,20.58-4.94,20.58-14.83,0-5.06-1.78-8.73-5.33-11.01-3.55-2.28-8.86-3.42-15.93-3.42Z"/>
    <path class="cls-1" d="M189.61,0c10.39,0,19.31,2.11,26.76,6.32,7.45,4.22,13.09,10.21,16.92,17.98,3.83,7.77,5.74,16.9,5.74,27.38,0,7.75-1.05,14.79-3.14,21.12-2.1,6.33-5.24,11.83-9.43,16.47-4.19,4.65-9.34,8.2-15.45,10.66-6.11,2.46-13.1,3.69-20.99,3.69s-14.86-1.26-21.05-3.79c-6.2-2.53-11.37-6.09-15.52-10.7-4.15-4.6-7.28-10.14-9.4-16.61-2.12-6.47-3.18-13.47-3.18-20.99s1.1-14.77,3.32-21.19c2.21-6.43,5.41-11.89,9.6-16.41,4.19-4.51,9.3-7.96,15.31-10.36,6.02-2.39,12.85-3.59,20.51-3.59Zm28.85,51.54c0-7.34-1.19-13.69-3.55-19.07-2.37-5.38-5.75-9.44-10.15-12.2-4.4-2.76-9.45-4.14-15.14-4.14-4.06,0-7.8,.76-11.25,2.29-3.44,1.53-6.4,3.75-8.89,6.67-2.48,2.92-4.44,6.64-5.88,11.18-1.44,4.54-2.15,9.63-2.15,15.28s.72,10.85,2.15,15.45c1.44,4.6,3.46,8.42,6.08,11.45,2.62,3.03,5.63,5.3,9.02,6.8,3.39,1.5,7.12,2.26,11.18,2.26,5.2,0,9.97-1.3,14.32-3.9,4.35-2.6,7.82-6.61,10.39-12.03,2.57-5.42,3.86-12.1,3.86-20.03Z"/>
    <path class="cls-1" d="M282.85,12.17l39.03,59.06V11.62c0-3.87,.83-6.78,2.5-8.72,1.66-1.94,3.91-2.91,6.73-2.91s5.22,.97,6.9,2.91c1.69,1.94,2.53,4.84,2.53,8.72V90.44c0,8.8-3.65,13.19-10.94,13.19-1.82,0-3.46-.26-4.92-.79-1.46-.52-2.83-1.36-4.1-2.5-1.28-1.14-2.46-2.47-3.55-4-1.09-1.53-2.19-3.09-3.28-4.68l-38.08-58.38v58.72c0,3.83-.89,6.72-2.67,8.68-1.78,1.96-4.06,2.94-6.84,2.94s-5.17-.99-6.9-2.97c-1.73-1.98-2.6-4.86-2.6-8.65V14.7c0-3.28,.36-5.86,1.09-7.72,.87-2.05,2.3-3.73,4.31-5.02,2-1.3,4.17-1.95,6.49-1.95,1.82,0,3.38,.3,4.68,.89,1.3,.59,2.44,1.39,3.42,2.39,.98,1,1.98,2.3,3.01,3.9,1.03,1.6,2.09,3.26,3.18,4.99Z"/>
    <path class="cls-1" d="M375.34,1.71h26.46c6.88,0,12.78,.64,17.7,1.91,4.92,1.28,9.39,3.67,13.4,7.18,10.44,8.93,15.65,22.51,15.65,40.74,0,6.02-.52,11.51-1.57,16.47-1.05,4.97-2.67,9.45-4.85,13.43-2.19,3.99-4.99,7.55-8.41,10.7-2.69,2.42-5.63,4.35-8.82,5.81-3.19,1.46-6.62,2.48-10.29,3.08-3.67,.59-7.8,.89-12.41,.89h-26.46c-3.69,0-6.47-.56-8.34-1.67-1.87-1.12-3.09-2.69-3.66-4.72-.57-2.03-.85-4.66-.85-7.9V14.15c0-4.38,.98-7.54,2.94-9.5,1.96-1.96,5.13-2.94,9.5-2.94Zm7.86,16.06V85.79h15.38c3.37,0,6.02-.09,7.93-.27,1.91-.18,3.9-.64,5.95-1.37,2.05-.73,3.83-1.75,5.33-3.08,6.79-5.74,10.19-15.63,10.19-29.67,0-9.89-1.49-17.29-4.48-22.22-2.99-4.92-6.67-8.05-11.04-9.4-4.38-1.34-9.66-2.02-15.86-2.02h-13.4Z"/>
    <path class="cls-1" d="M542.55,71.85c0,6.06-1.56,11.51-4.68,16.34-3.12,4.83-7.69,8.61-13.71,11.35-6.02,2.73-13.15,4.1-21.4,4.1-9.89,0-18.05-1.87-24.47-5.61-4.56-2.69-8.26-6.28-11.11-10.77-2.85-4.49-4.27-8.85-4.27-13.09,0-2.46,.85-4.57,2.56-6.32,1.71-1.75,3.88-2.63,6.53-2.63,2.14,0,3.95,.68,5.43,2.05,1.48,1.37,2.75,3.4,3.79,6.08,1.28,3.19,2.65,5.86,4.14,8,1.48,2.14,3.57,3.91,6.25,5.3,2.69,1.39,6.22,2.08,10.6,2.08,6.02,0,10.9-1.4,14.66-4.2,3.76-2.8,5.64-6.3,5.64-10.49,0-3.33-1.01-6.03-3.04-8.1-2.03-2.07-4.65-3.66-7.86-4.75-3.21-1.09-7.51-2.26-12.89-3.49-7.2-1.69-13.23-3.66-18.08-5.91s-8.71-5.33-11.55-9.23c-2.85-3.9-4.27-8.74-4.27-14.53s1.5-10.41,4.51-14.7c3.01-4.28,7.36-7.58,13.06-9.88,5.7-2.3,12.4-3.45,20.1-3.45,6.15,0,11.47,.76,15.96,2.29,4.49,1.53,8.21,3.55,11.18,6.08,2.96,2.53,5.13,5.18,6.49,7.96,1.37,2.78,2.05,5.49,2.05,8.13,0,2.42-.85,4.59-2.56,6.53-1.71,1.94-3.84,2.91-6.39,2.91-2.32,0-4.09-.58-5.3-1.74-1.21-1.16-2.52-3.06-3.93-5.71-1.82-3.78-4.01-6.73-6.56-8.85-2.55-2.12-6.65-3.18-12.3-3.18-5.24,0-9.47,1.15-12.68,3.45-3.21,2.3-4.82,5.07-4.82,8.31,0,2.01,.55,3.74,1.64,5.2,1.09,1.46,2.6,2.71,4.51,3.76,1.91,1.05,3.85,1.87,5.81,2.46,1.96,.59,5.2,1.46,9.71,2.6,5.65,1.32,10.77,2.78,15.35,4.38,4.58,1.6,8.48,3.53,11.69,5.81,3.21,2.28,5.72,5.16,7.52,8.65,1.8,3.49,2.7,7.76,2.7,12.82Z"/>
  </g>
  <g>
    <path class="cls-1" d="M176.94,487.5c0,63.2,51.23,114.43,114.43,114.43s114.43-51.23,114.43-114.43-51.23-114.43-114.43-114.43-114.43,51.23-114.43,114.43Zm125.99-85.35c.9,.9,1.35,2.06,1.35,3.47v13.87c8.48,1.54,15.8,4.27,21.96,8.19,6.16,3.92,10.88,8.41,14.16,13.49,3.28,5.08,5.04,9.99,5.3,14.74,0,1.15-.39,2.15-1.16,2.99-.77,.84-1.73,1.25-2.89,1.25h-26.97c-2.95,0-5.14-1.16-6.55-3.47-.77-2.7-2.79-4.98-6.07-6.84-3.28-1.86-7.23-2.79-11.85-2.79-5.39,0-9.57,.96-12.52,2.89-2.96,1.93-4.43,4.75-4.43,8.48s1.93,6.65,5.78,8.77c3.85,2.12,10.98,4.27,21.39,6.45,12.07,2.18,21.7,4.91,28.9,8.19,7.19,3.28,12.46,7.51,15.8,12.72,3.34,5.2,5.01,11.78,5.01,19.75,0,11.3-4.14,20.61-12.43,27.94-8.28,7.32-19.43,11.88-33.43,13.68v13.49c0,1.41-.45,2.57-1.35,3.47-.9,.9-2.06,1.35-3.47,1.35h-16.76c-1.29,0-2.41-.45-3.37-1.35-.96-.9-1.45-2.06-1.45-3.47v-13.49c-9.63-1.15-17.82-3.56-24.56-7.22-6.74-3.66-11.82-8.19-15.22-13.58-3.4-5.39-5.23-11.11-5.49-17.15,0-1.15,.42-2.12,1.25-2.89,.83-.77,1.83-1.16,2.99-1.16h25.62c1.67,0,2.95,.26,3.85,.77,.9,.51,1.93,1.41,3.08,2.7,3.98,7.07,11.3,10.6,21.96,10.6,6.94,0,12.3-1.06,16.09-3.18,3.79-2.12,5.68-5.04,5.68-8.77,0-2.7-1-4.91-2.99-6.65-1.99-1.73-5.07-3.28-9.25-4.62-4.17-1.35-10.31-2.86-18.4-4.53-15.54-3.08-27.16-7.77-34.87-14.06-7.71-6.29-11.56-15.28-11.56-26.97,0-10.4,3.72-19.23,11.18-26.49,7.45-7.25,17.66-11.78,30.63-13.58v-13.49c0-1.41,.48-2.57,1.45-3.47,.96-.9,2.09-1.35,3.37-1.35h16.76c1.41,0,2.57,.45,3.47,1.35Z"/>
    <path class="cls-1" d="M176.41,320.89h229.91c5.85,0,10.6-4.74,10.6-10.59s-4.74-10.6-10.6-10.6H176.41c-5.85,0-10.6,4.74-10.6,10.6s4.74,10.59,10.6,10.59Z"/>
    <path class="cls-1" d="M437.42,635.57c-16.47,0-25.16,3.15-32.83,5.93-6.9,2.5-12.86,4.66-25.6,4.66s-18.7-2.16-25.6-4.66c-7.67-2.78-16.36-5.93-32.82-5.93s-25.16,3.15-32.83,5.93c-6.9,2.5-12.86,4.66-25.6,4.66s-18.7-2.16-25.6-4.66c-7.67-2.78-16.36-5.93-32.82-5.93s-25.16,3.15-32.82,5.93c-6.9,2.5-12.85,4.66-25.6,4.66s-18.7-2.16-25.6-4.66c-7.67-2.78-16.36-5.93-32.82-5.93-5.85,0-10.6,4.74-10.6,10.6s4.74,10.6,10.6,10.6c12.74,0,18.7,2.16,25.6,4.66,7.67,2.78,16.36,5.93,32.82,5.93s25.16-3.15,32.82-5.93c6.9-2.5,12.85-4.66,25.6-4.66s18.7,2.16,25.6,4.66c7.67,2.78,16.36,5.93,32.82,5.93s25.16-3.15,32.82-5.93c6.9-2.5,12.86-4.66,25.6-4.66s18.7,2.16,25.6,4.66c7.67,2.78,16.36,5.93,32.82,5.93s25.16-3.15,32.83-5.93c6.9-2.5,12.86-4.66,25.6-4.66s18.7,2.16,25.6,4.66c7.67,2.78,16.36,5.93,32.83,5.93,5.85,0,10.6-4.74,10.6-10.6s-4.74-10.6-10.6-10.6c-12.75,0-18.7-2.16-25.6-4.66-7.67-2.78-16.36-5.93-32.83-5.93Z"/>
    <path class="cls-1" d="M495.85,719.27c-12.75,0-18.7-2.16-25.6-4.66-7.67-2.78-16.36-5.93-32.83-5.93s-25.16,3.15-32.83,5.93c-6.9,2.5-12.86,4.66-25.6,4.66s-18.7-2.16-25.6-4.66c-7.67-2.78-16.36-5.93-32.82-5.93s-25.16,3.15-32.83,5.93c-6.9,2.5-12.86,4.66-25.6,4.66s-18.7-2.16-25.6-4.66c-7.67-2.78-16.36-5.93-32.82-5.93s-25.16,3.15-32.82,5.93c-6.9,2.5-12.85,4.66-25.6,4.66s-18.7-2.16-25.6-4.66c-7.67-2.78-16.36-5.93-32.82-5.93-5.85,0-10.6,4.74-10.6,10.6s4.74,10.59,10.6,10.59c12.74,0,18.7,2.16,25.6,4.66,7.67,2.78,16.36,5.93,32.82,5.93s25.16-3.15,32.82-5.93c6.9-2.5,12.85-4.66,25.6-4.66s18.7,2.16,25.6,4.66c7.67,2.78,16.36,5.93,32.82,5.93s25.16-3.15,32.82-5.93c6.9-2.5,12.86-4.66,25.6-4.66s18.7,2.16,25.6,4.66c7.67,2.78,16.36,5.93,32.82,5.93s25.16-3.15,32.83-5.93c6.9-2.5,12.86-4.66,25.6-4.66s18.7,2.16,25.6,4.66c7.67,2.78,16.36,5.93,32.83,5.93,5.85,0,10.6-4.74,10.6-10.6s-4.74-10.59-10.6-10.59Z"/>
    <path class="cls-1" d="M495.85,792.37c-12.75,0-18.7-2.16-25.6-4.66-7.67-2.78-16.36-5.93-32.83-5.93s-25.16,3.15-32.83,5.93c-6.9,2.5-12.86,4.66-25.6,4.66s-18.7-2.16-25.6-4.66c-7.67-2.78-16.36-5.93-32.82-5.93s-25.16,3.15-32.83,5.93c-6.9,2.5-12.86,4.66-25.6,4.66s-18.7-2.16-25.6-4.66c-7.67-2.78-16.36-5.93-32.82-5.93s-25.16,3.15-32.82,5.93c-6.9,2.5-12.85,4.66-25.6,4.66s-18.7-2.16-25.6-4.66c-7.67-2.78-16.36-5.93-32.82-5.93-5.85,0-10.6,4.74-10.6,10.6s4.74,10.6,10.6,10.6c12.74,0,18.7,2.16,25.6,4.66,7.67,2.78,16.36,5.93,32.82,5.93s25.16-3.15,32.82-5.93c6.9-2.5,12.85-4.66,25.6-4.66s18.7,2.16,25.6,4.66c7.67,2.78,16.36,5.93,32.82,5.93s25.16-3.15,32.82-5.93c6.9-2.5,12.86-4.66,25.6-4.66s18.7,2.16,25.6,4.66c7.67,2.78,16.36,5.93,32.82,5.93s25.16-3.15,32.83-5.93c6.9-2.5,12.86-4.66,25.6-4.66s18.7,2.16,25.6,4.66c7.67,2.78,16.36,5.93,32.83,5.93,5.85,0,10.6-4.74,10.6-10.6s-4.74-10.6-10.6-10.6Z"/>
    <path class="cls-1" d="M572.13,181.04H10.59c-5.85,0-10.59,4.74-10.59,10.6V1019.11c0,5.85,4.74,10.59,10.59,10.59H329.5l-53.12,184.22c-1.16,4.04,.17,8.38,3.4,11.07,3.23,2.69,7.74,3.22,11.5,1.35l37.9-18.87,19.36,35.05c1.88,3.4,5.45,5.47,9.27,5.47,.4,0,.8-.02,1.2-.07,4.26-.48,7.81-3.49,8.99-7.61l51.51-179.83c2.51-1.19,4.94-2.18,6.41-2.18s3.9,.99,6.41,2.18l51.51,179.83c1.18,4.12,4.73,7.13,8.99,7.61,.4,.05,.8,.07,1.2,.07,3.82,0,7.39-2.07,9.27-5.47l19.36-35.05,37.9,18.87c3.76,1.87,8.28,1.34,11.5-1.35,3.23-2.69,4.56-7.04,3.4-11.07l-53.12-184.22h49.79c5.85,0,10.59-4.74,10.59-10.59V191.63c0-5.85-4.74-10.6-10.59-10.6Zm-217.43,1028.8l-11.87-21.49c-2.74-4.97-8.91-6.89-14-4.36l-25.41,12.65,46.5-161.26c2.28,.49,4.53,.85,6.65,1.19,3.61,.57,8.56,1.36,10.18,2.53,1.56,1.13,3.8,5.55,5.43,8.77,3.73,7.36,8.37,16.51,18.04,19.65,1.67,.54,3.33,.83,4.96,.94l-40.49,141.38Zm51.47-166.38c-2.88,1.46-7.7,3.87-9.44,3.87-1.54-.96-4.2-6.2-5.65-9.04-2.9-5.71-6.18-12.19-11.86-16.33-5.74-4.18-12.97-5.32-19.34-6.33-2.98-.47-7.71-1.22-9.62-2.14v-4.97h-.67c.2-1.98,.54-4.17,.8-5.82,1.01-6.4,2.14-13.66-.07-20.47-2.14-6.6-7.24-11.67-11.73-16.14-2.37-2.36-6.79-6.75-6.97-8.41,.18-1.7,4.6-6.09,6.97-8.45,4.49-4.47,9.59-9.54,11.73-16.14,2.21-6.81,1.07-14.07,.07-20.47-.52-3.28-1.37-8.72-.74-10.39,1.38-1.14,6.91-2.02,10.24-2.54,6.37-1.01,13.6-2.15,19.34-6.33,5.68-4.14,8.96-10.61,11.86-16.32,1.45-2.87,4.14-8.17,5.62-9.04h.04c1.79,0,6.55,2.41,9.42,3.87,5.84,2.97,12.47,6.34,19.75,6.34s13.91-3.37,19.75-6.34c2.89-1.46,7.62-3.89,9.44-3.87,1.54,.96,4.2,6.2,5.65,9.04,2.9,5.71,6.18,12.19,11.86,16.33,5.74,4.18,12.97,5.32,19.34,6.33,3.37,.53,8.98,1.42,10.22,2.51,.65,1.64-.21,7.12-.73,10.42-1.01,6.4-2.14,13.66,.07,20.47,2.14,6.6,7.24,11.67,11.73,16.14,2.36,2.35,6.75,6.72,6.96,8.43-.22,1.71-4.6,6.08-6.97,8.43-4.49,4.47-9.59,9.54-11.73,16.14-2.21,6.81-1.07,14.07-.07,20.47,.26,1.64,.6,3.83,.8,5.82h-.67v4.94c-1.98,.96-6.66,1.71-9.62,2.17-6.37,1.01-13.6,2.15-19.34,6.33-5.68,4.14-8.96,10.61-11.86,16.32-1.45,2.87-4.14,8.17-5.62,9.04h-.04c-1.79,0-6.55-2.41-9.42-3.87-5.84-2.97-12.47-6.34-19.75-6.34s-13.91,3.37-19.75,6.34Zm116.84,140.53c-5.08-2.53-11.25-.61-13.99,4.36l-11.87,21.49-40.49-141.37c1.64-.11,3.29-.4,4.96-.95,9.67-3.14,14.31-12.3,18.04-19.65,1.63-3.22,3.87-7.64,5.43-8.77,1.62-1.18,6.57-1.96,10.18-2.53,2.12-.34,4.37-.7,6.66-1.19l46.5,161.26-25.41-12.65Zm38.53-293.68c-13.18,1.08-26.12,4.17-38.31,9.15-.52-3.37-1.67-6.66-3.87-9.69-5.92-8.13-15.99-9.73-24.08-11.01-3.61-.57-8.56-1.36-10.18-2.53-1.56-1.13-3.8-5.55-5.43-8.77-3.73-7.36-8.37-16.51-18.04-19.65-9.37-3.04-18.34,1.51-25.54,5.17-3.54,1.8-7.95,4.04-10.15,4.04s-6.61-2.24-10.15-4.04c-7.2-3.66-16.16-8.21-25.54-5.17-9.67,3.14-14.31,12.3-18.04,19.65-1.63,3.22-3.87,7.64-5.43,8.77-1.62,1.18-6.57,1.96-10.18,2.53-8.09,1.28-18.16,2.87-24.08,11.01-5.87,8.07-4.3,18.09-3.04,26.14,.61,3.86,1.36,8.65,.71,10.64-.56,1.73-4.01,5.16-6.52,7.66-5.89,5.86-13.21,13.14-13.21,23.45s7.33,17.59,13.21,23.45c2.52,2.5,5.96,5.93,6.52,7.66,.64,1.99-.11,6.79-.71,10.64-.45,2.85-.93,5.94-1.11,9.1H139.42c-5.12-62.84-55.39-113.1-118.23-118.23V320.46c62.84-5.12,113.1-55.39,118.23-118.23H443.31c5.12,62.84,55.39,113.11,118.23,118.23V890.3Z"/>
  </g>
</svg>