<?xml version="1.0" encoding="UTF-8"?>
<svg id="_Layer_" data-name="&amp;lt;Layer&amp;gt;" xmlns="http://www.w3.org/2000/svg" viewBox="0 0 1658.46 1397.06">
  <defs>
    <style>
      .cls-1 {
        fill: #fb0;
      }

      .cls-2 {
        fill: #fff;
      }

      .cls-3 {
        fill: #333;
      }

      .cls-4 {
        fill: #ffa680;
      }

      .cls-5 {
        fill: #68cc74;
      }

      .cls-6 {
        fill: #ffe561;
      }

      .cls-7 {
        fill: #ff7840;
      }

      .cls-8 {
        fill: #a6ebad;
      }
    </style>
  </defs>
  <g>
    <path class="cls-2" d="M902.48,1141.72h117.91s.06,.01,.1,.01c.04,0,.07-.01,.11-.01h491.86s.07,.01,.11,.01c.03,0,.06-.01,.1-.01h117.91v97.61H902.48v-97.61Z"/>
    <path class="cls-2" d="M1503.97,753.72c29.09,57.07,43.99,117.56,43.99,180.02s-14.91,122.96-44.01,180.11h-474.84c-29.11-57.15-44.01-117.68-44.01-180.11s14.9-122.95,43.99-180.02h474.88Z"/>
    <path class="cls-2" d="M1630.58,1113.84h-95.5c27-57.36,40.77-117.83,40.77-180.11s-13.76-122.74-40.76-180.02h95.49v360.12Z"/>
    <path class="cls-2" d="M957.21,933.73c0,62.28,13.77,122.74,40.77,180.11h-95.5v-360.12h95.49c-26.99,57.27-40.76,117.71-40.76,180.02Z"/>
    <path class="cls-2" d="M1234.54,233.09c2.29-133.87,103.98-194.82,197.5-194.82h.03c93.47,0,195.09,60.92,197.47,194.6-2.41,133.71-104.04,194.6-197.5,194.6s-195.23-60.98-197.5-194.38Z"/>
    <path class="cls-2" d="M1234.55,652.57h134.9c7.7,0,13.94-6.24,13.94-13.94s-6.24-13.94-13.94-13.94h-134.9v-73.31h134.9c7.7,0,13.94-6.24,13.94-13.94s-6.24-13.94-13.94-13.94h-134.9v-60.28c0-4.34,3.52-7.86,7.85-7.86h379.26c4.59,0,8.52,3.98,8.91,7.86v60.28h-135.95c-7.7,0-13.94,6.24-13.94,13.94s6.24,13.94,13.94,13.94h135.95v73.31h-135.95c-7.7,0-13.94,6.24-13.94,13.94s6.24,13.94,13.94,13.94h135.96v73.26h-396.02v-73.26Z"/>
    <path class="cls-2" d="M417.09,67.65c31.42,0,61.67,13.46,82.95,36.94,3.25,3.58,8.1,5.22,12.91,4.34,4.76-.9,8.71-4.21,10.44-8.74,16.5-43.24,58.59-72.31,104.74-72.31s88.15,29.06,104.66,72.31c1.73,4.53,5.69,7.84,10.44,8.74,4.81,.88,9.67-.76,12.91-4.34,21.28-23.48,51.52-36.94,82.95-36.94,18.32,0,36.1,4.38,52.02,12.74l-100.33,244.33h-81.71l32.34-145.36c1.66-7.52-3.07-14.96-10.59-16.64-7.5-1.61-14.95,3.07-16.64,10.59l-33.69,151.41h-104.8l-33.7-151.41c-1.69-7.53-9.17-12.24-16.64-10.59-7.52,1.68-12.25,9.13-10.59,16.64l32.36,145.36h-95.15l-97.68-237.86c18.42-12.45,40.39-19.21,62.82-19.21Z"/>
    <path class="cls-2" d="M410.86,384.38c0-17.52,14.24-31.78,31.76-31.78h357.75c17.52,0,31.78,14.26,31.78,31.78s-14.26,31.76-31.78,31.76H442.62c-17.52,0-31.76-14.24-31.76-31.76Z"/>
    <path class="cls-2" d="M800.38,444.03c17.52,0,31.78,14.26,31.78,31.78s-14.26,31.76-31.78,31.76H442.62s-.03,0-.04,0c-.05,0-.09-.01-.13-.01-17.44-.1-31.59-14.29-31.59-31.74s14.24-31.78,31.76-31.78h357.75Z"/>
    <path class="cls-2" d="M82.79,1369.17c-30.27,0-54.9-24.63-54.9-54.9s24.63-55.01,54.9-55.01c7.7,0,13.94-6.24,13.94-13.94,0-1.77-.33-3.46-.93-5.02,.18-26.42,34.87-209.01,40.95-236.98,37.07-170.68,105.74-377.82,308.93-467.87h351.6c80.7,36.06,173.84,118.48,216.57,190.38h-125.3c-7.7,0-13.94,6.24-13.94,13.94v625.55l-791.81,3.86Z"/>
    <rect class="cls-2" x="902.48" y="1267.22" width="728.1" height="97.62"/>
  </g>
  <path class="cls-6" d="M464.76,384.38c0-17.52,13.25-31.78,29.56-31.78h332.9c16.3,0,29.57,14.26,29.57,31.78s-13.27,31.76-29.57,31.76H494.32c-16.3,0-29.56-14.24-29.56-31.76Z"/>
  <path class="cls-6" d="M827.22,444.03c16.3,0,29.57,14.26,29.57,31.78s-13.27,31.76-29.57,31.76H494.32s-.03,0-.04,0c-.04,0-.08-.01-.12-.01-16.23-.1-29.39-14.29-29.39-31.74s13.25-31.78,29.56-31.78h332.9Z"/>
  <path class="cls-4" d="M159.48,1385.28c-28.17,0-51.09-40.74-51.09-71.01s22.92-55.01,51.09-55.01c7.17,0,12.97-6.24,12.97-13.94,0-1.77-.3-3.46-.87-5.02,.17-26.42,32.45-209.01,38.1-236.98,34.5-170.68,98.39-377.82,287.46-467.87h327.17c75.09,36.06,161.76,118.48,201.52,190.38h-116.6c-7.17,0-12.97,6.24-12.97,13.94v641.65l-736.8,3.86Z"/>
  <rect class="cls-8" x="982.99" y="1267.22" width="668.94" height="97.62"/>
  <path class="cls-8" d="M982.99,1141.72h108.33s.06,.01,.09,.01c.03,0,.07-.01,.1-.01h451.9s.07,.01,.1,.01c.03,0,.06-.01,.09-.01h108.33v97.61H982.99v-97.61Z"/>
  <path class="cls-8" d="M1503.97,753.72c29.09,57.07,43.99,117.56,43.99,180.02s-14.91,122.96-44.01,180.11h-474.84c-29.11-57.15-44.01-117.68-44.01-180.11s14.9-122.95,43.99-180.02h474.88Z"/>
  <path class="cls-8" d="M1630.58,1113.84h-95.5c27-57.36,40.77-117.83,40.77-180.11s-13.76-122.74-40.76-180.02h95.49v360.12Z"/>
  <path class="cls-6" d="M1234.54,233.09c2.29-133.87,103.98-194.82,197.5-194.82h.03c93.47,0,195.09,60.92,197.47,194.6-2.41,133.71-104.04,194.6-197.5,194.6s-195.23-60.98-197.5-194.38Z"/>
  <path class="cls-6" d="M1234.55,652.57h134.9c7.7,0,13.94-6.24,13.94-13.94s-6.24-13.94-13.94-13.94h-134.9v-73.31h134.9c7.7,0,13.94-6.24,13.94-13.94s-6.24-13.94-13.94-13.94h-134.9v-60.28c0-4.34,3.52-7.86,7.85-7.86h379.26c4.59,0,8.52,3.98,8.91,7.86v60.28h-135.95c-7.7,0-13.94,6.24-13.94,13.94s6.24,13.94,13.94,13.94h135.95v73.31h-135.95c-7.7,0-13.94,6.24-13.94,13.94s6.24,13.94,13.94,13.94h135.96v73.26h-396.02v-73.26Z"/>
  <path class="cls-4" d="M469.35,67.65c28.64,0,9.88,6.25,29.28,29.73,2.96,3.58,7.38,5.22,11.76,4.34,4.34-.9,7.94-4.21,9.52-8.74,15.04-43.24,69.35-81.25,111.41-81.25s82.16,35.41,97.21,78.65c1.58,4.53,5.18,7.84,9.52,8.74,4.38,.88,8.81-.76,11.76-4.34,19.39-23.48,72.35-37.92,100.99-37.92,16.7,0,36.05,15.16,50.56,23.52l-91.44,244.33H501.13L402.27,61.59c16.79-12.45,46.63,6.07,67.08,6.07Z"/>
  <rect class="cls-5" x="1490.94" y="1141.76" width="161.02" height="97.55"/>
  <path class="cls-5" d="M1630.58,1113.84h-95.5c27-57.36,40.77-117.83,40.77-180.11s-13.76-122.74-40.76-180.02h95.49v360.12Z"/>
  <path class="cls-7" d="M901.35,80.39l-91.38,244.34h-107.34l31.4-227.3c1.21,.81,2.55,1.48,4.03,1.74,4.43,.81,8.86-.81,11.81-4.43,19.32-23.48,72.32-37.84,100.9-37.84,16.77,0,36.09,15.16,50.59,23.48Z"/>
  <path class="cls-1" d="M856.8,384.44c0,17.44-10.95,31.67-24.32,31.67h-132.68c13.38,0,24.32-14.22,24.32-31.67s-10.95-31.8-24.32-31.8h132.68c13.38,0,24.32,14.22,24.32,31.8Z"/>
  <path class="cls-1" d="M856.8,475.82c0,17.44-10.95,31.8-24.32,31.8h-132.68c13.38,0,24.32-14.36,24.32-31.8s-10.95-31.8-24.32-31.8h132.68c13.38,0,24.32,14.22,24.32,31.8Z"/>
  <path class="cls-7" d="M909.26,725.8h116.6c-39.72-71.92-126.4-154.31-201.54-190.4h-123.45c75.14,36.09,124.25,118.48,163.97,190.4h-1.88c12.1,12.63,23.22,25.33,33.27,38.24v-24.28c0-7.65,5.77-13.96,13.02-13.96Z"/>
  <rect class="cls-5" x="1490.94" y="1267.21" width="161.02" height="97.68"/>
  <path class="cls-1" d="M1638.18,231.97c-8.55,182.56-152.61,202.59-165,193.91,34.63-24.2,91.83-87.05,88.33-193.91-3.63-110.74-50.31-173.59-84.94-197.78,12.38-8.68,169.52,28.82,161.61,197.78Z"/>
  <polygon class="cls-1" points="1646.86 453.09 1646.86 740.75 1544.49 740.75 1543.34 453.38 1646.86 453.09"/>
  <g>
    <g>
      <g>
        <path class="cls-3" d="M827.16,1397.06H82.79c-45.65,0-82.79-37.14-82.79-82.79,0-40.82,29.61-74.85,68.47-81.65,1.28-16.39,5.95-47.21,16.88-108.09,10.59-59.06,22.22-118.26,24.15-127.13,38.64-177.88,110.79-394.19,327.56-488.67,7.08-3.14,15.28,.17,18.34,7.21,3.08,7.06-.14,15.28-7.21,18.35-205.18,89.44-274.22,297.65-311.44,469.04-6.08,27.96-40.77,210.56-40.95,236.98,.6,1.56,.93,3.25,.93,5.02,0,7.7-6.24,13.94-13.94,13.94-30.27,0-54.9,24.67-54.9,55.01s24.63,54.9,54.9,54.9H827.16c7.7,0,13.94,6.24,13.94,13.94s-6.24,13.94-13.94,13.94ZM82.83,1231.38c1.06,0,2.1,.12,3.08,.35-.96-.22-1.99-.35-3.08-.35Z"/>
        <path class="cls-3" d="M995.83,697.09c-4.42,0-8.75-2.08-11.47-5.99-49.77-71.57-111.79-122.87-189.57-156.82-7.05-3.08-10.27-11.3-7.19-18.36,3.07-7.05,11.28-10.29,18.36-7.19,82.64,36.07,148.49,90.52,201.31,166.47,4.39,6.32,2.83,15-3.5,19.41-2.42,1.68-5.19,2.49-7.94,2.49Z"/>
        <g>
          <path class="cls-3" d="M800.38,444.03c-7.7,0-13.94-6.24-13.94-13.94s6.24-13.94,13.94-13.94c17.52,0,31.78-14.24,31.78-31.76s-14.26-31.78-31.78-31.78H442.62c-17.52,0-31.76,14.26-31.76,31.78s14.24,31.76,31.76,31.76c7.7,0,13.94,6.24,13.94,13.94s-6.24,13.94-13.94,13.94c-32.89,0-59.65-26.76-59.65-59.65s26.76-59.66,59.65-59.66h357.75c32.9,0,59.66,26.76,59.66,59.66s-26.76,59.65-59.66,59.65Z"/>
          <path class="cls-3" d="M800.38,535.45H442.63c-32.89,0-59.65-26.76-59.65-59.65s26.76-59.65,59.65-59.65h357.75c32.89,0,59.65,26.76,59.65,59.65s-26.76,59.65-59.65,59.65Zm-357.75-91.42c-17.52,0-31.77,14.25-31.77,31.77s14.25,31.77,31.77,31.77h357.75c17.52,0,31.77-14.25,31.77-31.77s-14.25-31.77-31.77-31.77H442.63Z"/>
        </g>
        <path class="cls-3" d="M442.6,352.58c-5.48,0-10.68-3.25-12.89-8.65L324.36,87.45c-2.33-5.67-.68-12.2,4.06-16.08,24.9-20.39,56.38-31.61,88.66-31.61s63.95,11.49,88.88,32.05C530.46,28.17,577.32,0,628.12,0s97.57,28.17,122.07,71.82c24.94-20.56,56.38-32.05,88.88-32.05,27.66,0,54.35,8.02,77.19,23.18,5.54,3.67,7.72,10.76,5.19,16.9l-108.44,264.08c-2.92,7.14-11.09,10.55-18.19,7.6-7.13-2.92-10.52-11.07-7.6-18.19l103.87-252.95c-15.92-8.36-33.7-12.74-52.02-12.74-31.42,0-61.67,13.46-82.95,36.94-3.24,3.58-8.1,5.22-12.91,4.34-4.76-.9-8.71-4.21-10.44-8.74-16.51-43.24-58.57-72.31-104.66-72.31s-88.24,29.06-104.74,72.31c-1.73,4.53-5.69,7.84-10.44,8.74-4.81,.88-9.66-.76-12.91-4.34-21.28-23.48-51.52-36.94-82.95-36.94-22.43,0-44.39,6.76-62.82,19.21l101.22,246.48c2.92,7.12-.47,15.27-7.6,18.19-1.73,.72-3.52,1.05-5.29,1.05Z"/>
        <path class="cls-3" d="M564.47,352.58c-6.39,0-12.15-4.42-13.6-10.92l-36.13-162.3c-1.66-7.51,3.07-14.96,10.59-16.64,7.47-1.65,14.95,3.05,16.64,10.59l36.13,162.3c1.66,7.51-3.07,14.96-10.59,16.64-1.02,.22-2.03,.33-3.04,.33Z"/>
        <path class="cls-3" d="M691.68,352.58c-1.01,0-2.02-.1-3.04-.33-7.52-1.68-12.25-9.12-10.59-16.64l36.11-162.3c1.69-7.52,9.15-12.2,16.64-10.59,7.52,1.68,12.25,9.12,10.59,16.64l-36.11,162.3c-1.45,6.5-7.21,10.92-13.6,10.92Z"/>
      </g>
      <g>
        <path class="cls-3" d="M628.01,1175.3c-77-.01-139.63-53.93-139.63-120.2,0-7.7,6.24-13.94,13.94-13.94s13.94,6.24,13.94,13.94c0,50.89,50.13,92.3,111.75,92.31,36.44,0,70.29-14.87,88.34-38.83,12.87-17.06,16.39-37.55,10.19-59.23-12.78-44.64-48.99-58.05-94.86-75.04-21.25-7.86-43.23-16-64.39-28.13-39.77-22.79-58.49-63.72-47.7-104.29,9.92-37.28,47.29-74.89,108.42-74.89s113.25,43.91,113.25,97.9c0,7.7-6.24,13.94-13.94,13.94s-13.94-6.24-13.94-13.94c0-38.6-38.3-70.01-85.37-70.01-49.49,0-74.82,29.18-81.46,54.17-7.57,28.42,5.69,56.37,34.61,72.93,19.16,10.97,40.03,18.7,60.21,26.18,46.87,17.35,95.33,35.3,111.98,93.51,8.7,30.43,3.6,59.37-14.74,83.71-23.22,30.78-65.6,49.91-110.61,49.91Z"/>
        <path class="cls-3" d="M622.92,1219.1c-7.7,0-13.94-6.24-13.94-13.94v-486.8c0-7.7,6.24-13.94,13.94-13.94s13.94,6.24,13.94,13.94v486.8c0,7.7-6.24,13.94-13.94,13.94Z"/>
      </g>
    </g>
    <g>
      <g>
        <path class="cls-3" d="M1369.45,551.37h-148.86c-7.7,0-13.94-6.24-13.94-13.94s6.24-13.94,13.94-13.94h148.86c7.7,0,13.94,6.24,13.94,13.94s-6.24,13.94-13.94,13.94Z"/>
        <path class="cls-3" d="M1369.45,652.57h-148.86c-7.7,0-13.94-6.24-13.94-13.94s6.24-13.94,13.94-13.94h148.86c7.7,0,13.94,6.24,13.94,13.94s-6.24,13.94-13.94,13.94Z"/>
        <path class="cls-3" d="M1643.47,551.37h-148.86c-7.7,0-13.94-6.24-13.94-13.94s6.24-13.94,13.94-13.94h148.86c7.7,0,13.94,6.24,13.94,13.94s-6.24,13.94-13.94,13.94Z"/>
        <path class="cls-3" d="M1643.47,652.57h-148.86c-7.7,0-13.94-6.24-13.94-13.94s6.24-13.94,13.94-13.94h148.86c7.7,0,13.94,6.24,13.94,13.94s-6.24,13.94-13.94,13.94Z"/>
        <path class="cls-3" d="M1644.52,753.69c-7.7,0-13.94-6.24-13.94-13.94V463.21c-.41-3.88-4.34-7.86-8.92-7.86h-379.26c-4.32,0-7.85,3.52-7.85,7.86v276.54c0,7.7-6.24,13.94-13.94,13.94s-13.94-6.24-13.94-13.94V463.21c0-19.71,16.03-35.75,35.73-35.75h379.26c18.91,0,35.05,15.17,36.74,34.54l.07,277.74c0,7.7-6.24,13.94-13.94,13.94Z"/>
      </g>
      <g>
        <g>
          <path class="cls-3" d="M1434.67,346.68c-1.32,0-2.79-.03-4.13-.17-41.76-1.3-75.28-31.7-75.28-69.15,0-7.7,6.24-13.94,13.94-13.94s13.94,6.24,13.94,13.94c0,21.94,22.12,40.48,49.31,41.35l2.21,.08c16.69,0,32.67-6.89,40.73-17.56,5.46-7.25,6.89-15.66,4.23-25-5.53-19.22-20.23-25.45-45.72-34.82l-6.8-2.52c-8.31-3.18-17.98-7.14-27.36-12.51-23-13.14-34.1-37.02-28.25-60.8,6.32-25.72,30.41-43.77,59.97-44.89,.41-.08,1.73-.1,3.2-.1,36.23,0,65.71,25.88,65.71,57.68,0,7.7-6.24,13.94-13.94,13.94s-13.94-6.24-13.94-13.94c0-16.43-16.97-29.8-37.83-29.8-.31,.04-1.81,.07-2.12,.08-20.98,.8-31.41,13.26-33.96,23.68-2.88,11.73,2.74,22.93,15.02,29.95,7.76,4.44,16.18,7.88,23.4,10.65l6.53,2.41c24.92,9.15,53.17,19.52,62.9,53.31,5.06,17.72,1.94,35.27-8.78,49.48-13.33,17.66-37.46,28.64-62.98,28.64Z"/>
          <path class="cls-3" d="M1432.01,369.53c-7.7,0-13.94-6.24-13.94-13.94v-22.94c0-7.7,6.24-13.94,13.94-13.94s13.94,6.24,13.94,13.94v22.94c0,7.7-6.24,13.94-13.94,13.94Z"/>
          <path class="cls-3" d="M1432.01,148.57c-7.7,0-13.94-6.24-13.94-13.94v-32.79c0-7.7,6.24-13.94,13.94-13.94s13.94,6.24,13.94,13.94v32.79c0,7.7-6.24,13.94-13.94,13.94Z"/>
        </g>
        <path class="cls-3" d="M1432.03,455.35h-.02c-28.13,0-55.54-4.66-81.46-13.84-26.99-9.56-51.14-23.62-71.78-41.78-46.02-40.51-70.96-98.13-72.12-166.64,0-.16,0-.32,0-.47,1.17-68.52,26.12-126.14,72.15-166.64,20.64-18.16,44.79-32.22,71.79-41.77,25.92-9.18,53.32-13.83,81.44-13.83h.02c28.13,0,55.54,4.66,81.46,13.84,26.99,9.56,51.14,23.62,71.78,41.78,46.02,40.5,70.96,98.12,72.12,166.63,0,.16,0,.32,0,.47-1.17,68.52-26.12,126.14-72.15,166.65-20.64,18.16-44.79,32.22-71.79,41.78-25.92,9.18-53.32,13.83-81.44,13.83Zm-197.49-222.49c1.08,60.34,22.74,110.81,62.66,145.94,17.96,15.81,39.04,28.06,62.67,36.43,22.92,8.12,47.2,12.24,72.15,12.24h.02c24.95,0,49.22-4.11,72.14-12.23,23.63-8.37,44.71-20.62,62.67-36.42,39.92-35.13,61.59-85.6,62.68-145.95-1.08-60.35-22.74-110.8-62.66-145.94-17.96-15.8-39.04-28.06-62.67-36.43-22.92-8.12-47.2-12.24-72.15-12.24h-.02c-24.95,0-49.22,4.11-72.14,12.23-23.63,8.36-44.71,20.62-62.67,36.42-39.93,35.13-61.6,85.59-62.68,145.95Z"/>
      </g>
    </g>
    <g>
      <g>
        <path class="cls-3" d="M1644.52,1141.72H888.54c-7.7,0-13.94-6.24-13.94-13.94v-388.01c0-7.7,6.24-13.94,13.94-13.94h755.97c7.7,0,13.94,6.24,13.94,13.94v388.01c0,7.7-6.24,13.94-13.94,13.94Zm-742.03-27.89h728.09v-360.12H902.48v360.12Z"/>
        <g>
          <path class="cls-3" d="M1020.49,1141.74c-4.98,0-9.8-2.67-12.32-7.38-33.81-63.38-50.96-130.88-50.96-200.63s17.15-137.27,50.97-200.55c3.6-6.8,12.08-9.38,18.86-5.73,6.8,3.63,9.36,12.07,5.73,18.86-31.63,59.21-47.67,122.27-47.67,187.42s16.04,128.2,47.68,187.5c3.62,6.8,1.05,15.24-5.74,18.87-2.1,1.11-4.34,1.64-6.55,1.64Z"/>
          <path class="cls-3" d="M1512.57,1141.74c-2.21,0-4.46-.52-6.55-1.64-6.79-3.63-9.36-12.07-5.74-18.87,31.65-59.29,47.68-122.39,47.68-187.5s-16.04-128.2-47.67-187.42c-3.63-6.79-1.07-15.23,5.73-18.86,6.77-3.66,15.24-1.07,18.86,5.73,33.82,63.28,50.97,130.76,50.97,200.55s-17.15,137.25-50.96,200.63c-2.52,4.7-7.34,7.38-12.32,7.38Z"/>
        </g>
      </g>
      <path class="cls-3" d="M1644.52,1267.22H888.54c-7.7,0-13.94-6.24-13.94-13.94s6.24-13.94,13.94-13.94h755.98c7.7,0,13.94,6.24,13.94,13.94s-6.24,13.94-13.94,13.94Z"/>
      <path class="cls-3" d="M1644.52,1392.72H888.54c-7.7,0-13.94-6.24-13.94-13.94v-251c0-7.7,6.24-13.94,13.94-13.94s13.94,6.24,13.94,13.94v237.06h728.1v-237.06c0-7.7,6.24-13.94,13.94-13.94s13.94,6.24,13.94,13.94v251c0,7.7-6.24,13.94-13.94,13.94Z"/>
      <g>
        <path class="cls-3" d="M1269.16,1051.74c-1.34,0-2.8-.03-4.14-.17-41.75-1.3-75.27-31.7-75.27-69.15,0-7.7,6.24-13.94,13.94-13.94s13.94,6.24,13.94,13.94c0,21.94,22.12,40.48,49.32,41.35l2.2,.08c16.69,0,32.67-6.89,40.73-17.56,5.46-7.25,6.89-15.67,4.23-25.01-5.53-19.2-20.21-25.43-45.68-34.8l-6.83-2.53c-8.32-3.18-17.99-7.13-27.36-12.5-23-13.14-34.1-37.02-28.26-60.8,6.32-25.72,30.43-43.77,59.99-44.89,.38-.08,1.73-.1,3.18-.1,36.24,0,65.73,25.87,65.73,57.67,0,7.7-6.24,13.94-13.94,13.94s-13.94-6.24-13.94-13.94c0-16.42-16.98-29.78-37.84-29.78-.31,.04-1.8,.07-2.11,.08-20.99,.8-31.42,13.26-33.98,23.68-2.88,11.73,2.74,22.93,15.03,29.95,7.73,4.43,16.17,7.86,23.4,10.63l6.56,2.44c24.91,9.16,53.15,19.54,62.86,53.29,5.04,17.73,1.93,35.3-8.79,49.49-13.33,17.66-37.46,28.64-62.98,28.64Z"/>
        <path class="cls-3" d="M1266.51,1074.58c-7.7,0-13.94-6.24-13.94-13.94v-22.93c0-7.7,6.24-13.94,13.94-13.94s13.94,6.24,13.94,13.94v22.93c0,7.7-6.24,13.94-13.94,13.94Z"/>
        <path class="cls-3" d="M1266.51,853.63c-7.7,0-13.94-6.24-13.94-13.94v-32.78c0-7.7,6.24-13.94,13.94-13.94s13.94,6.24,13.94,13.94v32.78c0,7.7-6.24,13.94-13.94,13.94Z"/>
      </g>
    </g>
  </g>
</svg>