<?xml version="1.0" encoding="UTF-8"?>
<svg id="Ebene_1" data-name="Ebene 1" xmlns="http://www.w3.org/2000/svg" viewBox="0 0 3358 3358">
  <defs>
    <style>
      .cls-1 {
        fill: #f01414;
      }

      .cls-2 {
        fill: #fff;
      }

      .cls-3 {
        fill: none;
        stroke: #fff;
        stroke-miterlimit: 10;
        stroke-width: 108.28px;
      }
    </style>
  </defs>
  <polygon class="cls-1" points="2374.46 0 983.54 0 0 983.54 0 2374.46 983.54 3358 2374.46 3358 3358 2374.46 3358 983.54 2374.46 0"/>
  <polygon class="cls-3" points="2314.82 144 1043.18 144 144 1043.18 144 2314.82 1043.18 3214 2314.82 3214 3214 2314.82 3214 1043.18 2314.82 144"/>
  <path class="cls-2" d="M1705.57,2834.94c-96.22,0-187.18-12.3-270.34-36.55-84.36-24.6-158.54-60.91-220.47-107.9-64.21-48.72-114.09-108.14-148.28-176.61-36.15-72.4-54.47-154.57-54.47-244.21v-642.01c0-.54,.07-1.1,.2-1.65,.39-1.59,.58-3.24,.58-5.04V926.86c0-33.42,12.39-64.52,34.9-87.57,22.87-23.42,54.3-36.32,88.5-36.32s65.63,12.9,88.5,36.32c22.51,23.04,34.9,54.14,34.9,87.57v640.58c0,12.4,10.09,22.49,22.49,22.49h11.27c12.4,0,22.49-10.09,22.49-22.49V744.29c0-32.85,13.54-63.86,38.14-87.32,24.72-23.58,57.48-36.56,92.24-36.56s67.51,12.98,92.24,36.56c24.59,23.46,38.14,54.47,38.14,87.32v778.58c0,12.4,10.09,22.49,22.49,22.49h12.04c12.4,0,22.49-10.09,22.49-22.49V586.94c0-32.85,13.54-63.86,38.14-87.32,24.72-23.58,57.48-36.56,92.24-36.56s67.51,12.98,92.24,36.56c24.59,23.46,38.14,54.47,38.14,87.32v935.93c0,12.4,10.09,22.49,22.49,22.49h12.04c12.4,0,22.49-10.09,22.49-22.49V704.76c0-32.85,13.54-63.86,38.14-87.32,24.72-23.58,57.48-36.56,92.24-36.56s67.51,12.98,92.24,36.56c24.59,23.46,38.14,54.47,38.14,87.32V1747.21c0,3.54-2.52,6.6-6,7.28l-.42,.08c-115.01,23.36-231.61,97.63-319.83,203.74-92.38,111.12-145.09,244.97-148.43,376.9-.19,7.28,2.48,14.19,7.49,19.47,5.02,5.28,11.79,8.29,19.07,8.47,.23,0,.47,0,.7,0,14.9,0,26.87-11.67,27.25-26.58,3.12-123.1,52.91-246.99,140.22-348.84,39.46-46.03,86.25-86.72,135.32-117.64,48.73-30.71,100.3-52.19,149.12-62.11,.58-.12,1.15-.21,1.69-.31,3.16-.54,7.49-1.27,10.9-5l1.61-2.03,.35-.73c.15-.27,.33-.6,.49-.98,.04-.09,.08-.2,.13-.31,6.7-13.94,59.63-123.57,151.08-298.28,3.44-6.58,6.95-13.36,10.53-20.29,46.21-89.37,103.73-200.58,192.16-200.58,8.44,0,17.17,1.03,25.94,3.05,26.36,6.08,44.75,18.91,56.23,39.21,11.91,21.07,16.39,50.93,13.33,88.76-3.02,37.37-13.57,83.96-31.34,138.46-1.63,5.13-162.77,510.92-372.48,988.13-27.44,62.43-64.8,115.63-111.06,158.12-40.79,37.47-89.7,67.7-145.37,89.84-112.35,44.7-233.72,49.87-315.25,49.87Z"/>
</svg>