<?xml version="1.0" encoding="UTF-8"?>
<svg xmlns="http://www.w3.org/2000/svg" viewBox="0 0 248.47 457.14">
  <defs>
    <style>
      .cls-1 {
        fill: none;
        stroke: #fff;
        stroke-miterlimit: 10;
        stroke-width: 4.71px;
      }

      .cls-2 {
        fill: #9c3;
      }
    </style>
  </defs>
  <g id="Layer_1" data-name="Layer 1">
	<path class="cls-2" d="M248.47,297.34l-.54,4.3c-4.91,42.15-24.87,74.96-47.33,94.92v19.63c0,22.59-18.35,40.94-40.94,40.94H59.56c-22.59,0-40.94-18.35-40.94-40.94v-34.69C7.6,360.2,0,328.34,0,280.94v-1.28c0-13.24,.34-23.13,3.56-29.78-1.21-16.34,4.17-30.32,15.6-39.19,7.87-6.12,17.41-8.74,26.62-7.73,2.15-3.29,5.04-6.12,8.6-8.47,10.49-6.92,25.68-8.6,41.95-5.11,.87-3.5,2.02-6.45,3.23-8.74,.94-1.82,2.08-3.36,3.36-4.71,7.46-12.84,19.36-19.36,33.21-18.08,5.24,.54,10.55,2.22,15.53,4.91,1.41-29.31,1.48-63.4,.81-76.3v-.94c-1.48-27.5-1.21-61.04,13.71-76.77,5.45-5.71,12.44-8.74,20.17-8.74,34.22,0,34.42,49.81,34.49,73.75,.07,3.36,0,6.12,.13,7.87,.34,4.57,.4,14.79,.34,32.4,0,20.84-.07,59.63,1.48,66.29,3.56,12.03,10.89,62.92,10.49,86.32,4.3,9.68,8.81,19.16,13.11,26.96l2.08,3.76Z"/>
	<g>
	  <path class="cls-1" d="M50.89,399.77c-20.04-14.35-37.42-47.61-37.42-118.84,0-6.86-.25-24.62,3.31-26.66"/>
	  <path class="cls-1" d="M172.46,399.81c24.75-12.56,55.85-46.29,62.14-99.76-16.48-30.22-35.71-82.41-35.71-82.41-13.74-6.87-80.12-44.41-87.45-30.67-7.32,13.74-10.86,68.11,49.9,77.83"/>
	  <path class="cls-1" d="M152.43,262.94c2.05,18.8,24.02,51.3,40.5,54.96"/>
	  <path class="cls-1" d="M163.18,192.14c3.2-32.26,3.65-88.8,2.75-106.36-.76-14.81-4.3-72.34,20.42-72.34s20.33,56.77,21.24,69.13c.92,12.36-.91,90.61,2.29,101.39,3.21,10.78,11.08,65.02,9.89,85.29"/>
	  <path class="cls-1" d="M166.83,201.16c-6.4-24.26-39.82-44.7-53.56-16.07"/>
	  <path class="cls-1" d="M113.28,233.18c1.37,27.47,17.39,58.63,26.78,60,9.39,1.37,17.94-7.98,19.16-12.69"/>
	  <path class="cls-1" d="M107.5,207.11c-25.82-10.99-53.29-6.87-53.29,12.82s15.57,78.75,39.83,85.16c24.27,6.41,39.12-.83,39.02-16.67"/>
	  <path class="cls-1" d="M54.21,219.93c-17.4-11.9-48.53,5.04-33.42,46.24,15.11,41.21,46.63,45.88,61.54,31.41"/>
	  <path class="cls-1" d="M32.09,378.07v38.15c0,15.17,12.3,27.48,27.48,27.48h100.12c15.17,0,27.48-12.3,27.48-27.48v-25.95"/>
	</g>
  </g>
</svg>